G04 #@! TF.GenerationSoftware,KiCad,Pcbnew,9.0.4*
G04 #@! TF.CreationDate,2025-11-13T14:55:27+05:30*
G04 #@! TF.ProjectId,BSPD,42535044-2e6b-4696-9361-645f70636258,7*
G04 #@! TF.SameCoordinates,Original*
G04 #@! TF.FileFunction,Paste,Top*
G04 #@! TF.FilePolarity,Positive*
%FSLAX46Y46*%
G04 Gerber Fmt 4.6, Leading zero omitted, Abs format (unit mm)*
G04 Created by KiCad (PCBNEW 9.0.4) date 2025-11-13 14:55:27*
%MOMM*%
%LPD*%
G01*
G04 APERTURE LIST*
G04 Aperture macros list*
%AMRoundRect*
0 Rectangle with rounded corners*
0 $1 Rounding radius*
0 $2 $3 $4 $5 $6 $7 $8 $9 X,Y pos of 4 corners*
0 Add a 4 corners polygon primitive as box body*
4,1,4,$2,$3,$4,$5,$6,$7,$8,$9,$2,$3,0*
0 Add four circle primitives for the rounded corners*
1,1,$1+$1,$2,$3*
1,1,$1+$1,$4,$5*
1,1,$1+$1,$6,$7*
1,1,$1+$1,$8,$9*
0 Add four rect primitives between the rounded corners*
20,1,$1+$1,$2,$3,$4,$5,0*
20,1,$1+$1,$4,$5,$6,$7,0*
20,1,$1+$1,$6,$7,$8,$9,0*
20,1,$1+$1,$8,$9,$2,$3,0*%
G04 Aperture macros list end*
%ADD10RoundRect,0.250000X0.325000X0.450000X-0.325000X0.450000X-0.325000X-0.450000X0.325000X-0.450000X0*%
%ADD11R,0.558000X1.454899*%
%ADD12RoundRect,0.250000X-0.450000X0.350000X-0.450000X-0.350000X0.450000X-0.350000X0.450000X0.350000X0*%
%ADD13RoundRect,0.250000X0.350000X0.450000X-0.350000X0.450000X-0.350000X-0.450000X0.350000X-0.450000X0*%
%ADD14R,1.200000X1.200000*%
%ADD15R,1.500000X1.600000*%
%ADD16RoundRect,0.250000X0.337500X0.475000X-0.337500X0.475000X-0.337500X-0.475000X0.337500X-0.475000X0*%
%ADD17R,1.320800X0.558800*%
%ADD18RoundRect,0.250000X-0.325000X-0.450000X0.325000X-0.450000X0.325000X0.450000X-0.325000X0.450000X0*%
%ADD19RoundRect,0.150000X-0.587500X-0.150000X0.587500X-0.150000X0.587500X0.150000X-0.587500X0.150000X0*%
%ADD20R,1.454899X0.558000*%
%ADD21RoundRect,0.250000X0.450000X-0.350000X0.450000X0.350000X-0.450000X0.350000X-0.450000X-0.350000X0*%
%ADD22R,0.900800X1.549400*%
%ADD23R,3.200400X1.549400*%
G04 APERTURE END LIST*
D10*
X69900000Y-25800000D03*
X67850000Y-25800000D03*
D11*
X76895000Y-68121348D03*
X78165000Y-68121348D03*
X79435000Y-68121348D03*
X80705000Y-68121348D03*
X80705000Y-62678652D03*
X79435000Y-62678652D03*
X78165000Y-62678652D03*
X76895000Y-62678652D03*
X49790000Y-44031348D03*
X51060000Y-44031348D03*
X52330000Y-44031348D03*
X53600000Y-44031348D03*
X54870000Y-44031348D03*
X56140000Y-44031348D03*
X57410000Y-44031348D03*
X57410000Y-38588652D03*
X56140000Y-38588652D03*
X54870000Y-38588652D03*
X53600000Y-38588652D03*
X52330000Y-38588652D03*
X51060000Y-38588652D03*
X49790000Y-38588652D03*
D12*
X72800000Y-60600000D03*
X72800000Y-62600000D03*
D13*
X79300000Y-59400000D03*
X77300000Y-59400000D03*
D11*
X52010000Y-62778652D03*
X50740000Y-62778652D03*
X49470000Y-62778652D03*
X48200000Y-62778652D03*
X46930000Y-62778652D03*
X45660000Y-62778652D03*
X44390000Y-62778652D03*
X44390000Y-68221348D03*
X45660000Y-68221348D03*
X46930000Y-68221348D03*
X48200000Y-68221348D03*
X49470000Y-68221348D03*
X50740000Y-68221348D03*
X52010000Y-68221348D03*
D14*
X69500000Y-62500000D03*
D15*
X66250000Y-61500000D03*
D14*
X69500000Y-60500000D03*
X74700000Y-45100000D03*
D15*
X71450000Y-44100000D03*
D14*
X74700000Y-43100000D03*
D16*
X63737500Y-39300000D03*
X61662500Y-39300000D03*
D14*
X61800000Y-42500000D03*
D15*
X65050000Y-43500000D03*
D14*
X61800000Y-44500000D03*
D11*
X43090000Y-55521348D03*
X44360000Y-55521348D03*
X45630000Y-55521348D03*
X46900000Y-55521348D03*
X48170000Y-55521348D03*
X49440000Y-55521348D03*
X50710000Y-55521348D03*
X50710000Y-50078652D03*
X49440000Y-50078652D03*
X48170000Y-50078652D03*
X46900000Y-50078652D03*
X45630000Y-50078652D03*
X44360000Y-50078652D03*
X43090000Y-50078652D03*
D17*
X54216200Y-56140040D03*
X54216200Y-58039960D03*
X56603800Y-57090000D03*
D18*
X29675000Y-52900000D03*
X31725000Y-52900000D03*
D19*
X78962500Y-43050000D03*
X78962500Y-44950000D03*
X80837500Y-44000000D03*
D14*
X58200000Y-60400000D03*
D15*
X61450000Y-61400000D03*
D14*
X58200000Y-62400000D03*
D20*
X44821348Y-45010000D03*
X44821348Y-43740000D03*
X44821348Y-42470000D03*
X44821348Y-41200000D03*
X44821348Y-39930000D03*
X44821348Y-38660000D03*
X44821348Y-37390000D03*
X39378652Y-37390000D03*
X39378652Y-38660000D03*
X39378652Y-39930000D03*
X39378652Y-41200000D03*
X39378652Y-42470000D03*
X39378652Y-43740000D03*
X39378652Y-45010000D03*
D21*
X76000000Y-72800000D03*
X76000000Y-70800000D03*
D13*
X49900000Y-59100000D03*
X47900000Y-59100000D03*
D22*
X71400000Y-30874200D03*
X69100000Y-30874200D03*
X66800000Y-30874200D03*
D23*
X69100000Y-37325800D03*
D11*
X60290000Y-55121348D03*
X61560000Y-55121348D03*
X62830000Y-55121348D03*
X64100000Y-55121348D03*
X65370000Y-55121348D03*
X66640000Y-55121348D03*
X67910000Y-55121348D03*
X67910000Y-49678652D03*
X66640000Y-49678652D03*
X65370000Y-49678652D03*
X64100000Y-49678652D03*
X62830000Y-49678652D03*
X61560000Y-49678652D03*
X60290000Y-49678652D03*
M02*
