G04 #@! TF.GenerationSoftware,KiCad,Pcbnew,9.0.4*
G04 #@! TF.CreationDate,2025-11-13T14:55:27+05:30*
G04 #@! TF.ProjectId,BSPD,42535044-2e6b-4696-9361-645f70636258,7*
G04 #@! TF.SameCoordinates,Original*
G04 #@! TF.FileFunction,Soldermask,Bot*
G04 #@! TF.FilePolarity,Negative*
%FSLAX46Y46*%
G04 Gerber Fmt 4.6, Leading zero omitted, Abs format (unit mm)*
G04 Created by KiCad (PCBNEW 9.0.4) date 2025-11-13 14:55:27*
%MOMM*%
%LPD*%
G01*
G04 APERTURE LIST*
G04 Aperture macros list*
%AMRoundRect*
0 Rectangle with rounded corners*
0 $1 Rounding radius*
0 $2 $3 $4 $5 $6 $7 $8 $9 X,Y pos of 4 corners*
0 Add a 4 corners polygon primitive as box body*
4,1,4,$2,$3,$4,$5,$6,$7,$8,$9,$2,$3,0*
0 Add four circle primitives for the rounded corners*
1,1,$1+$1,$2,$3*
1,1,$1+$1,$4,$5*
1,1,$1+$1,$6,$7*
1,1,$1+$1,$8,$9*
0 Add four rect primitives between the rounded corners*
20,1,$1+$1,$2,$3,$4,$5,0*
20,1,$1+$1,$4,$5,$6,$7,0*
20,1,$1+$1,$6,$7,$8,$9,0*
20,1,$1+$1,$8,$9,$2,$3,0*%
G04 Aperture macros list end*
%ADD10R,2.250000X2.250000*%
%ADD11C,2.250000*%
%ADD12O,2.300000X3.100000*%
%ADD13R,1.400000X1.400000*%
%ADD14C,1.400000*%
%ADD15C,2.057400*%
%ADD16O,3.100000X2.300000*%
%ADD17C,1.500000*%
%ADD18RoundRect,0.250000X0.675000X-0.675000X0.675000X0.675000X-0.675000X0.675000X-0.675000X-0.675000X0*%
%ADD19C,1.850000*%
%ADD20C,7.600000*%
%ADD21C,1.457960*%
%ADD22R,1.700000X1.700000*%
%ADD23C,1.700000*%
%ADD24RoundRect,0.150000X0.587500X0.150000X-0.587500X0.150000X-0.587500X-0.150000X0.587500X-0.150000X0*%
%ADD25RoundRect,0.250000X-0.450000X0.350000X-0.450000X-0.350000X0.450000X-0.350000X0.450000X0.350000X0*%
%ADD26RoundRect,0.250000X0.350000X0.450000X-0.350000X0.450000X-0.350000X-0.450000X0.350000X-0.450000X0*%
%ADD27RoundRect,0.163043X-1.036957X0.586957X-1.036957X-0.586957X1.036957X-0.586957X1.036957X0.586957X0*%
%ADD28RoundRect,0.250000X-0.350000X-0.450000X0.350000X-0.450000X0.350000X0.450000X-0.350000X0.450000X0*%
%ADD29RoundRect,0.250000X0.450000X-0.350000X0.450000X0.350000X-0.450000X0.350000X-0.450000X-0.350000X0*%
%ADD30RoundRect,0.225000X0.225000X0.375000X-0.225000X0.375000X-0.225000X-0.375000X0.225000X-0.375000X0*%
%ADD31RoundRect,0.250000X0.475000X-0.337500X0.475000X0.337500X-0.475000X0.337500X-0.475000X-0.337500X0*%
%ADD32RoundRect,0.250000X-0.300000X0.300000X-0.300000X-0.300000X0.300000X-0.300000X0.300000X0.300000X0*%
%ADD33RoundRect,0.150000X-0.150000X0.587500X-0.150000X-0.587500X0.150000X-0.587500X0.150000X0.587500X0*%
%ADD34RoundRect,0.225000X-0.225000X-0.375000X0.225000X-0.375000X0.225000X0.375000X-0.225000X0.375000X0*%
%ADD35RoundRect,0.250001X-0.462499X-0.624999X0.462499X-0.624999X0.462499X0.624999X-0.462499X0.624999X0*%
%ADD36RoundRect,0.150000X0.150000X-0.587500X0.150000X0.587500X-0.150000X0.587500X-0.150000X-0.587500X0*%
%ADD37RoundRect,0.250000X-0.337500X-0.475000X0.337500X-0.475000X0.337500X0.475000X-0.337500X0.475000X0*%
%ADD38RoundRect,0.100000X0.225000X0.100000X-0.225000X0.100000X-0.225000X-0.100000X0.225000X-0.100000X0*%
%ADD39RoundRect,0.250000X-0.475000X0.337500X-0.475000X-0.337500X0.475000X-0.337500X0.475000X0.337500X0*%
%ADD40RoundRect,0.250000X0.337500X0.475000X-0.337500X0.475000X-0.337500X-0.475000X0.337500X-0.475000X0*%
G04 APERTURE END LIST*
D10*
X80600000Y-37950000D03*
D11*
X80600000Y-31450000D03*
D12*
X28800000Y-61500000D03*
D13*
X35300000Y-59000000D03*
D14*
X35300000Y-61500000D03*
X35300000Y-64000000D03*
D15*
X34368100Y-48025900D03*
X26768100Y-48025900D03*
X34368100Y-35325900D03*
X26768006Y-32785900D03*
D16*
X66400000Y-75925000D03*
D17*
X62650000Y-69425000D03*
X65150000Y-69425000D03*
X67650000Y-69425000D03*
X70150000Y-69425000D03*
D18*
X38460000Y-74000000D03*
D19*
X41000000Y-74000000D03*
X46080000Y-74000000D03*
X48620000Y-74000000D03*
X51160000Y-74000000D03*
D16*
X54673117Y-24200000D03*
D13*
X59673117Y-30700000D03*
D14*
X57173117Y-30700000D03*
X54673117Y-30700000D03*
X52173117Y-30700000D03*
X49673117Y-30700000D03*
D20*
X28740000Y-76022000D03*
X80600000Y-76028200D03*
X80674400Y-24090200D03*
D12*
X81302401Y-52766600D03*
D21*
X74800001Y-54016600D03*
X74800001Y-51516600D03*
D20*
X28668203Y-24093768D03*
D22*
X38400000Y-27836354D03*
D23*
X35860000Y-27836354D03*
D10*
X43700000Y-31000000D03*
D11*
X43700000Y-24500000D03*
D24*
X75937500Y-46500000D03*
X75937500Y-48400000D03*
X74062500Y-47450000D03*
D25*
X57100000Y-64500000D03*
X57100000Y-66500000D03*
D26*
X60200000Y-57600000D03*
X58200000Y-57600000D03*
D25*
X69500000Y-56600000D03*
X69500000Y-58600000D03*
D27*
X27700000Y-37309800D03*
X27700000Y-41609800D03*
D28*
X52100000Y-57700000D03*
X54100000Y-57700000D03*
X65600000Y-62400000D03*
X67600000Y-62400000D03*
D29*
X40100000Y-61000000D03*
X40100000Y-59000000D03*
D30*
X62100000Y-73600000D03*
X58800000Y-73600000D03*
D31*
X39400000Y-44137500D03*
X39400000Y-42062500D03*
D32*
X74000000Y-27220000D03*
X74000000Y-30020000D03*
D30*
X74200000Y-77346940D03*
X70900000Y-77346940D03*
D26*
X57900000Y-49000000D03*
X55900000Y-49000000D03*
D28*
X78800000Y-58600000D03*
X80800000Y-58600000D03*
D26*
X44800000Y-70000000D03*
X42800000Y-70000000D03*
X42600000Y-49200000D03*
X40600000Y-49200000D03*
D28*
X78300000Y-66300000D03*
X80300000Y-66300000D03*
D33*
X79840000Y-44280000D03*
X81740000Y-44280000D03*
X80790000Y-46155000D03*
D28*
X73400000Y-33600000D03*
X75400000Y-33600000D03*
D29*
X54800000Y-73800000D03*
X54800000Y-71800000D03*
D34*
X70950000Y-73446940D03*
X74250000Y-73446940D03*
D29*
X66700000Y-53300000D03*
X66700000Y-51300000D03*
D28*
X50300000Y-45400000D03*
X52300000Y-45400000D03*
D26*
X47700000Y-57700000D03*
X45700000Y-57700000D03*
D35*
X59812500Y-26200000D03*
X62787500Y-26200000D03*
D26*
X47000000Y-52400000D03*
X45000000Y-52400000D03*
D29*
X76800000Y-43200000D03*
X76800000Y-41200000D03*
D31*
X55800000Y-54337500D03*
X55800000Y-52262500D03*
D28*
X73300000Y-58500000D03*
X75300000Y-58500000D03*
D36*
X69592500Y-29177500D03*
X67692500Y-29177500D03*
X68642500Y-27302500D03*
D26*
X74300000Y-22900000D03*
X72300000Y-22900000D03*
D37*
X72762500Y-66300000D03*
X74837500Y-66300000D03*
D29*
X39300000Y-38500000D03*
X39300000Y-36500000D03*
D25*
X43000000Y-38500000D03*
X43000000Y-40500000D03*
D28*
X71300000Y-62500000D03*
X73300000Y-62500000D03*
X56000000Y-61000000D03*
X58000000Y-61000000D03*
D37*
X39262500Y-52500000D03*
X41337500Y-52500000D03*
D31*
X62800000Y-53337500D03*
X62800000Y-51262500D03*
D25*
X73200000Y-40600000D03*
X73200000Y-42600000D03*
D28*
X29700000Y-52900000D03*
X31700000Y-52900000D03*
D25*
X83000000Y-61700000D03*
X83000000Y-63700000D03*
X28700000Y-64800000D03*
X28700000Y-66800000D03*
D26*
X57900000Y-45500000D03*
X55900000Y-45500000D03*
X52300000Y-52500000D03*
X50300000Y-52500000D03*
D38*
X70150000Y-32250000D03*
X70150000Y-32900000D03*
X70150000Y-33550000D03*
X68250000Y-33550000D03*
X68250000Y-32900000D03*
X68250000Y-32250000D03*
D26*
X44800000Y-34800000D03*
X42800000Y-34800000D03*
D39*
X64500000Y-30862500D03*
X64500000Y-32937500D03*
D28*
X80700000Y-69600000D03*
X82700000Y-69600000D03*
D29*
X53300000Y-66500000D03*
X53300000Y-64500000D03*
D26*
X39100000Y-70000000D03*
X37100000Y-70000000D03*
D29*
X43000000Y-45800000D03*
X43000000Y-43800000D03*
D28*
X77000000Y-62600000D03*
X79000000Y-62600000D03*
D24*
X35137500Y-39170000D03*
X35137500Y-41070000D03*
X33262500Y-40120000D03*
D28*
X48200000Y-70000000D03*
X50200000Y-70000000D03*
D25*
X46600000Y-38400000D03*
X46600000Y-40400000D03*
X61400000Y-61100000D03*
X61400000Y-63100000D03*
D28*
X58200000Y-36300000D03*
X60200000Y-36300000D03*
D39*
X49500000Y-64462500D03*
X49500000Y-66537500D03*
D37*
X52362500Y-41600000D03*
X54437500Y-41600000D03*
D26*
X46900000Y-61300000D03*
X44900000Y-61300000D03*
X70000000Y-47500000D03*
X68000000Y-47500000D03*
D36*
X66880000Y-58577500D03*
X64980000Y-58577500D03*
X65930000Y-56702500D03*
D28*
X67500000Y-66300000D03*
X69500000Y-66300000D03*
D40*
X63737500Y-66300000D03*
X61662500Y-66300000D03*
D29*
X40100000Y-66400000D03*
X40100000Y-64400000D03*
D28*
X79600000Y-48500000D03*
X81600000Y-48500000D03*
D34*
X58800000Y-77400000D03*
X62100000Y-77400000D03*
D28*
X70100000Y-37200000D03*
X72100000Y-37200000D03*
D26*
X64100000Y-43800000D03*
X62100000Y-43800000D03*
D25*
X35800000Y-51000000D03*
X35800000Y-53000000D03*
D40*
X66637500Y-37400000D03*
X64562500Y-37400000D03*
D28*
X50300000Y-49200000D03*
X52300000Y-49200000D03*
D26*
X77200000Y-69600000D03*
X75200000Y-69600000D03*
D40*
X64137500Y-47500000D03*
X62062500Y-47500000D03*
D29*
X46800000Y-48300000D03*
X46800000Y-46300000D03*
D25*
X58200000Y-39600000D03*
X58200000Y-41600000D03*
D28*
X50300000Y-61100000D03*
X52300000Y-61100000D03*
X31100000Y-69900000D03*
X33100000Y-69900000D03*
D40*
X45637500Y-77600000D03*
X43562500Y-77600000D03*
D26*
X70100000Y-43800000D03*
X68100000Y-43800000D03*
M02*
