M48
; DRILL file {KiCad 9.0.4} date 2025-11-13T14:55:32+0530
; FORMAT={-:-/ absolute / inch / decimal}
; #@! TF.CreationDate,2025-11-13T14:55:32+05:30
; #@! TF.GenerationSoftware,Kicad,Pcbnew,9.0.4
; #@! TF.FileFunction,MixedPlating,1,2
FMAT,2
INCH
; #@! TA.AperFunction,Plated,PTH,ViaDrill
T1C0.0118
; #@! TA.AperFunction,Plated,PTH,ComponentDrill
T2C0.0335
; #@! TA.AperFunction,Plated,PTH,ComponentDrill
T3C0.0354
; #@! TA.AperFunction,Plated,PTH,ComponentDrill
T4C0.0370
; #@! TA.AperFunction,Plated,PTH,ComponentDrill
T5C0.0394
; #@! TA.AperFunction,Plated,PTH,ComponentDrill
T6C0.0512
; #@! TA.AperFunction,Plated,PTH,ComponentDrill
T7C0.0610
; #@! TA.AperFunction,Plated,PTH,ComponentDrill
T8C0.1693
; #@! TA.AperFunction,NonPlated,NPTH,ComponentDrill
T9C0.0787
%
G90
G05
T1
X0.8425Y-0.9449
X0.8425Y-2.9921
X0.8465Y-0.9016
X0.8465Y-0.9882
X0.8465Y-2.9449
X0.8504Y-3.0394
X0.8583Y-0.8622
X0.8583Y-1.0315
X0.8622Y-2.8898
X0.8622Y-3.0827
X0.874Y-0.8268
X0.874Y-1.0709
X0.8819Y-3.126
X0.8858Y-2.8425
X0.8976Y-0.7874
X0.8976Y-1.1142
X0.9055Y-3.1614
X0.9173Y-2.8031
X0.9252Y-0.7559
X0.9252Y-1.1496
X0.9331Y-3.1929
X0.9488Y-2.7717
X0.9567Y-0.7283
X0.9567Y-1.1772
X0.9646Y-3.2205
X0.9803Y-2.748
X0.9921Y-0.7047
X1.0039Y-1.2244
X1.0039Y-1.3661
X1.0039Y-1.4016
X1.0039Y-1.437
X1.0039Y-1.4724
X1.0039Y-1.5079
X1.0039Y-1.5433
X1.0039Y-1.5787
X1.0039Y-1.6142
X1.0039Y-1.6496
X1.0039Y-1.685
X1.0039Y-1.7205
X1.0039Y-1.7559
X1.0039Y-1.7913
X1.0039Y-1.8268
X1.0039Y-1.9331
X1.0039Y-1.9685
X1.0039Y-2.0039
X1.0039Y-2.0394
X1.0039Y-2.0748
X1.0039Y-2.1102
X1.0039Y-2.1457
X1.0039Y-2.1811
X1.0039Y-2.2165
X1.0039Y-2.252
X1.0039Y-2.2874
X1.0039Y-2.3228
X1.0039Y-2.3583
X1.0039Y-2.3937
X1.0039Y-2.4291
X1.0039Y-2.4646
X1.0039Y-2.5
X1.0039Y-2.5354
X1.0039Y-2.5709
X1.0039Y-2.6063
X1.0039Y-2.6417
X1.0039Y-2.6772
X1.0039Y-2.7126
X1.0039Y-3.2441
X1.0354Y-0.685
X1.0394Y-1.9685
X1.0394Y-2.0039
X1.0394Y-2.0394
X1.0394Y-2.0748
X1.0394Y-2.1102
X1.0394Y-2.1457
X1.0394Y-2.1811
X1.0394Y-2.2165
X1.0394Y-2.252
X1.0394Y-2.2874
X1.0394Y-2.3228
X1.0394Y-2.3583
X1.0394Y-2.3937
X1.0394Y-2.4291
X1.0394Y-2.4646
X1.0394Y-3.2598
X1.0433Y-1.189
X1.0472Y-1.1457
X1.0472Y-2.7638
X1.0472Y-2.8031
X1.0512Y-2.6417
X1.0512Y-2.6732
X1.0512Y-2.7126
X1.0748Y-1.9685
X1.0748Y-2.0039
X1.0748Y-2.0394
X1.0748Y-2.0748
X1.0748Y-2.1102
X1.0748Y-2.1457
X1.0748Y-2.1811
X1.0748Y-2.2165
X1.0748Y-2.252
X1.0748Y-2.2874
X1.0748Y-2.3228
X1.0748Y-2.3583
X1.0787Y-0.6732
X1.0787Y-3.2717
X1.0906Y-1.4642
X1.0984Y-2.7126
X1.0984Y-2.7638
X1.1024Y-1.1457
X1.1024Y-1.189
X1.1024Y-2.8031
X1.122Y-3.2756
X1.126Y-0.6654
X1.1378Y-1.1457
X1.1378Y-1.189
X1.1496Y-2.7126
X1.1496Y-2.7638
X1.1535Y-2.8031
X1.1654Y-3.2717
X1.1732Y-0.6693
X1.185Y-2.1969
X1.189Y-1.1417
X1.189Y-2.252
X1.2087Y-2.5866
X1.2087Y-3.2598
X1.2283Y-0.685
X1.2283Y-1.1063
X1.2323Y-1.1417
X1.248Y-2.0866
X1.248Y-3.2441
X1.252Y-2.1969
X1.252Y-2.252
X1.2598Y-2.5866
X1.2638Y-2.5472
X1.2756Y-0.7087
X1.2756Y-1.0866
X1.2756Y-1.1378
X1.2756Y-2.8701
X1.2913Y-3.2205
X1.2953Y-2.6811
X1.2992Y-3.1024
X1.3031Y-1.8071
X1.3071Y-1.7323
X1.315Y-0.7402
X1.315Y-2.1969
X1.315Y-2.252
X1.3189Y-2.8701
X1.3228Y-2.5472
X1.3228Y-2.5866
X1.3268Y-2.9094
X1.3268Y-3.1929
X1.3346Y-2.9606
X1.3346Y-3.0197
X1.3346Y-3.0709
X1.3425Y-2.6811
X1.3465Y-0.7717
X1.3543Y-3.1614
X1.3622Y-2.8701
X1.3701Y-0.8031
X1.374Y-2.9134
X1.374Y-2.9606
X1.378Y-1.7283
X1.378Y-1.8031
X1.378Y-3.126
X1.3819Y-2.1969
X1.3819Y-2.252
X1.3937Y-2.6811
X1.3976Y-3.0197
X1.4016Y-3.0669
X1.4055Y-0.8228
X1.4094Y-3.122
X1.4173Y-2.6417
X1.4291Y-1.6417
X1.4409Y-0.8228
X1.4449Y-3.122
X1.4488Y-3.0197
X1.4488Y-3.0591
X1.4646Y-1.5866
X1.4764Y-0.8228
X1.4803Y-2.252
X1.4803Y-3.122
X1.5079Y-3.0197
X1.5118Y-0.8228
X1.5118Y-3.063
X1.5157Y-3.122
X1.5433Y-2.0669
X1.5453Y-1.4429
X1.5472Y-0.8228
X1.5512Y-1.8189
X1.5512Y-3.122
X1.5748Y-3.0197
X1.5748Y-3.0591
X1.5787Y-2.3228
X1.5827Y-0.8228
X1.5866Y-3.122
X1.5886Y-2.1339
X1.5984Y-1.937
X1.6043Y-2.2756
X1.6063Y-2.2146
X1.6181Y-0.8228
X1.622Y-3.122
X1.626Y-1.7008
X1.6339Y-2.5069
X1.6378Y-3.0197
X1.6417Y-3.0591
X1.6496Y-2.6457
X1.6535Y-0.8228
X1.6575Y-3.122
X1.6654Y-2.6142
X1.6811Y-2.8819
X1.685Y-2.9291
X1.689Y-0.8228
X1.6929Y-3.122
X1.6969Y-1.8031
X1.7126Y-2.2677
X1.7165Y-2.4094
X1.7244Y-0.8228
X1.7244Y-2.3307
X1.7283Y-3.122
X1.7402Y-2.878
X1.7402Y-2.9291
X1.748Y-1.7244
X1.748Y-2.185
X1.748Y-2.4724
X1.748Y-2.8031
X1.75Y-1.7717
X1.7598Y-0.8228
X1.7638Y-3.122
X1.7717Y-2.0472
X1.7953Y-0.8228
X1.7953Y-1.0236
X1.7953Y-1.9882
X1.7992Y-2.2717
X1.7992Y-3.122
X1.811Y-2.3425
X1.814Y-1.7156
X1.8268Y-0.9961
X1.8307Y-0.8228
X1.8307Y-0.9528
X1.8307Y-1.0551
X1.8346Y-1.5866
X1.8346Y-3.122
X1.8425Y-1.6772
X1.8465Y-2.496
X1.8484Y-2.6024
X1.8622Y-0.9843
X1.8622Y-1.0315
X1.8622Y-3.0551
X1.8622Y-3.0866
X1.8661Y-0.8228
X1.8701Y-1.0945
X1.8701Y-1.7756
X1.8701Y-3.122
X1.8928Y-1.7222
X1.8941Y-2.7536
X1.8957Y-2.6654
X1.8976Y-1.0197
X1.8976Y-1.9528
X1.8976Y-2.1683
X1.9016Y-0.8228
X1.9016Y-0.874
X1.9016Y-1.0709
X1.9016Y-2.5684
X1.9016Y-3.0551
X1.9016Y-3.0866
X1.9055Y-3.122
X1.9252Y-1.7864
X1.9291Y-1.0551
X1.9331Y-1.1024
X1.9331Y-1.4606
X1.937Y-0.8228
X1.937Y-0.874
X1.9409Y-3.0157
X1.9409Y-3.0551
X1.9409Y-3.0866
X1.9409Y-3.122
X1.9488Y-0.9094
X1.9488Y-2.1683
X1.9488Y-2.5354
X1.9602Y-1.626
X1.9606Y-1.0866
X1.9606Y-1.1417
X1.9606Y-1.5394
X1.9606Y-1.6831
X1.9665Y-2.4055
X1.9724Y-0.8228
X1.9724Y-0.937
X1.9764Y-0.874
X1.9764Y-3.122
X1.9803Y-3.0157
X1.9803Y-3.0551
X1.9803Y-3.0866
X1.9921Y-0.9055
X1.9961Y-0.9685
X1.9961Y-1.122
X1.9961Y-2.185
X2.0079Y-0.8228
X2.0118Y-0.874
X2.0118Y-1.4528
X2.0118Y-3.122
X2.0138Y-1.7205
X2.0157Y-0.9331
X2.0276Y-3.0157
X2.0276Y-3.0551
X2.0276Y-3.0866
X2.0394Y-0.9685
X2.0433Y-0.8228
X2.0433Y-0.9094
X2.0472Y-0.874
X2.0472Y-2.4724
X2.0472Y-3.122
X2.0591Y-1.4528
X2.0591Y-1.7992
X2.0669Y-2.7795
X2.0709Y-3.0157
X2.0709Y-3.0551
X2.0709Y-3.0866
X2.0787Y-0.8228
X2.0787Y-0.874
X2.0827Y-3.122
X2.0984Y-2.5394
X2.0984Y-2.7402
X2.1102Y-1.315
X2.1102Y-1.4528
X2.1142Y-0.8228
X2.1142Y-0.874
X2.1181Y-2.9724
X2.1181Y-3.0157
X2.1181Y-3.0551
X2.1181Y-3.0866
X2.1181Y-3.122
X2.126Y-2.0512
X2.1299Y-1.8366
X2.1299Y-1.9331
X2.1299Y-2.5787
X2.1496Y-0.8228
X2.1496Y-0.874
X2.1535Y-3.122
X2.1575Y-1.7126
X2.1614Y-1.2717
X2.1614Y-1.315
X2.1614Y-1.4528
X2.1614Y-3.0866
X2.1654Y-2.9724
X2.1654Y-3.0157
X2.1654Y-3.0512
X2.185Y-0.8228
X2.185Y-0.874
X2.185Y-2.5157
X2.189Y-3.122
X2.1929Y-1.6862
X2.2102Y-1.8031
X2.2126Y-1.622
X2.2126Y-3.0512
X2.2126Y-3.0866
X2.2205Y-0.8228
X2.2205Y-0.874
X2.2244Y-1.2717
X2.2244Y-1.315
X2.2244Y-3.122
X2.2362Y-1.0276
X2.2392Y-1.8396
X2.2402Y-2.185
X2.2441Y-2.2864
X2.2469Y-2.6189
X2.252Y-0.9094
X2.2559Y-0.8228
X2.2559Y-0.874
X2.2559Y-3.0827
X2.2598Y-3.122
X2.2874Y-2.1181
X2.2913Y-0.8228
X2.2913Y-1.6378
X2.2913Y-2.3366
X2.2953Y-0.874
X2.2953Y-3.122
X2.311Y-0.9094
X2.315Y-2.8346
X2.315Y-2.9724
X2.3248Y-1.6791
X2.3268Y-0.8228
X2.3307Y-0.874
X2.3307Y-3.122
X2.3543Y-2.8346
X2.3543Y-2.8976
X2.3543Y-2.9724
X2.3622Y-0.8228
X2.3622Y-0.874
X2.3661Y-0.9094
X2.3661Y-3.122
X2.3689Y-2.5854
X2.3701Y-2.2677
X2.374Y-1.9528
X2.3858Y-1.7992
X2.3898Y-2.8346
X2.3898Y-2.9016
X2.3898Y-2.9724
X2.3937Y-3.0118
X2.3976Y-0.8228
X2.4016Y-0.874
X2.4016Y-3.122
X2.4213Y-0.9094
X2.4252Y-2.1732
X2.4331Y-0.8228
X2.4331Y-0.874
X2.437Y-3.122
X2.4685Y-0.8228
X2.4685Y-0.874
X2.4724Y-2.1024
X2.4724Y-3.122
X2.5039Y-0.8228
X2.5079Y-2.9843
X2.5079Y-3.0512
X2.5079Y-3.122
X2.5118Y-2.8346
X2.5118Y-2.9055
X2.5236Y-1.9528
X2.5394Y-0.8228
X2.5433Y-0.9567
X2.5433Y-3.122
X2.5551Y-1.6142
X2.5748Y-0.8228
X2.5787Y-2.8819
X2.5787Y-3.122
X2.5827Y-1.1181
X2.5827Y-2.5236
X2.5827Y-2.6496
X2.5974Y-1.872
X2.5984Y-0.9567
X2.6102Y-0.8228
X2.6142Y-1.7795
X2.6142Y-3.122
X2.626Y-1.9606
X2.6299Y-1.2165
X2.6417Y-1.6614
X2.6417Y-2.8819
X2.6457Y-0.8228
X2.6496Y-3.122
X2.6693Y-2.5197
X2.6732Y-0.9409
X2.6811Y-0.8228
X2.6811Y-2.0748
X2.685Y-3.122
X2.6969Y-1.4724
X2.7126Y-1.7953
X2.7165Y-0.8228
X2.7205Y-2.8346
X2.7205Y-2.9055
X2.7205Y-2.9803
X2.7205Y-3.0512
X2.7205Y-3.122
X2.7244Y-1.2677
X2.7244Y-2.4567
X2.7264Y-1.3209
X2.7382Y-2.3268
X2.752Y-0.8228
X2.7559Y-3.122
X2.7756Y-2.6614
X2.7804Y-2.252
X2.7874Y-0.8228
X2.7913Y-3.122
X2.8071Y-1.9803
X2.815Y-0.9724
X2.8189Y-1.5236
X2.8228Y-0.8228
X2.8268Y-3.122
X2.8425Y-2.9685
X2.8504Y-2.6102
X2.8583Y-0.8228
X2.8583Y-0.9724
X2.8583Y-2.185
X2.8583Y-2.8937
X2.8622Y-2.7362
X2.8622Y-2.8031
X2.8622Y-3.122
X2.878Y-1.7638
X2.8819Y-1.6811
X2.8819Y-1.9055
X2.8937Y-0.8228
X2.8937Y-2.9685
X2.8976Y-3.122
X2.9055Y-2.7283
X2.9094Y-1.4213
X2.9173Y-1.122
X2.9222Y-2.6614
X2.9252Y-0.9606
X2.9291Y-0.811
X2.9331Y-3.1457
X2.9528Y-0.7756
X2.9528Y-1.4213
X2.9528Y-2.9685
X2.9567Y-3.1772
X2.9606Y-2.7362
X2.9646Y-2.4724
X2.9803Y-0.7441
X2.9843Y-0.9528
X2.9882Y-0.8898
X2.9882Y-3.2087
X2.9961Y-1.4213
X2.9961Y-1.5354
X2.9961Y-2.5433
X3.0Y-1.0118
X3.0118Y-1.374
X3.0157Y-0.7165
X3.0197Y-1.0827
X3.0197Y-1.1339
X3.0236Y-1.1732
X3.0236Y-1.2126
X3.0236Y-1.252
X3.0276Y-3.2402
X3.0315Y-1.4961
X3.0335Y-1.7913
X3.0354Y-1.4528
X3.0374Y-1.7519
X3.0591Y-0.6929
X3.0669Y-1.1339
X3.0669Y-1.1732
X3.0669Y-1.2126
X3.0669Y-1.252
X3.0669Y-1.2874
X3.0748Y-3.2638
X3.0787Y-2.6063
X3.0787Y-2.689
X3.0827Y-1.4528
X3.0866Y-1.5787
X3.0925Y-2.1624
X3.0945Y-1.5394
X3.0984Y-0.6772
X3.1102Y-1.1339
X3.1102Y-1.1732
X3.122Y-1.5787
X3.126Y-1.3268
X3.126Y-1.3661
X3.126Y-1.4094
X3.126Y-1.622
X3.126Y-2.6614
X3.1299Y-2.5394
X3.1299Y-3.2795
X3.1417Y-0.6654
X3.1496Y-2.3937
X3.1575Y-1.1339
X3.1614Y-1.622
X3.1654Y-1.5787
X3.1693Y-1.3268
X3.1693Y-1.3661
X3.1693Y-1.4094
X3.1772Y-3.2835
X3.1774Y-2.6819
X3.1807Y-1.8171
X3.1811Y-2.3071
X3.185Y-0.6614
X3.2008Y-1.5827
X3.2008Y-1.622
X3.2047Y-1.1339
X3.2165Y-1.9094
X3.2205Y-2.4646
X3.2224Y-1.8002
X3.2244Y-1.3228
X3.2244Y-1.3661
X3.2244Y-1.4094
X3.2244Y-3.2756
X3.2283Y-0.6654
X3.252Y-1.1339
X3.252Y-1.1732
X3.2677Y-0.6772
X3.2677Y-1.2126
X3.2677Y-2.5551
X3.2677Y-3.2638
X3.2913Y-1.1732
X3.3031Y-0.6929
X3.3071Y-1.1339
X3.3071Y-1.2165
X3.3071Y-1.2559
X3.3071Y-1.2913
X3.3071Y-1.3346
X3.3071Y-1.3858
X3.3071Y-1.4252
X3.3071Y-1.4724
X3.3071Y-1.5157
X3.3071Y-1.563
X3.3071Y-1.6063
X3.3071Y-1.6535
X3.3071Y-1.6929
X3.3071Y-1.7323
X3.3071Y-1.7717
X3.3071Y-1.8268
X3.3071Y-1.878
X3.3071Y-1.9213
X3.3071Y-1.9724
X3.3071Y-2.0197
X3.3071Y-2.0551
X3.3071Y-2.0984
X3.3071Y-2.1378
X3.3071Y-2.1811
X3.3071Y-2.2205
X3.3071Y-2.2598
X3.3071Y-2.2992
X3.3071Y-2.3386
X3.3071Y-2.374
X3.3071Y-2.5669
X3.3071Y-2.6063
X3.3071Y-2.6457
X3.3071Y-2.6811
X3.3071Y-2.7165
X3.311Y-2.748
X3.311Y-3.2441
X3.3268Y-1.189
X3.3425Y-0.7165
X3.3465Y-2.7717
X3.3465Y-3.2205
X3.3583Y-1.1654
X3.374Y-0.7441
X3.378Y-2.7992
X3.378Y-3.1929
X3.3898Y-1.1339
X3.4016Y-0.7756
X3.4055Y-2.8346
X3.4055Y-3.1614
X3.4213Y-1.0945
X3.4252Y-0.811
X3.4291Y-2.878
X3.4291Y-3.122
X3.4449Y-0.8543
X3.4449Y-1.0472
X3.4449Y-2.9173
X3.4449Y-3.0866
X3.4567Y-0.8976
X3.4567Y-2.9606
X3.4567Y-3.0472
X3.4606Y-0.9921
X3.4606Y-3.0039
X3.4646Y-0.9449
T2
X1.5142Y-2.9134
X1.6142Y-2.9134
X1.8142Y-2.9134
X1.9142Y-2.9134
X2.0142Y-2.9134
T3
X1.3898Y-2.3228
X1.3898Y-2.4213
X1.3898Y-2.5197
X1.9556Y-1.2087
X2.0541Y-1.2087
X2.1525Y-1.2087
X2.2509Y-1.2087
X2.3493Y-1.2087
T4
X2.9449Y-2.0282
X2.9449Y-2.1266
T5
X1.4118Y-1.0959
X1.5118Y-1.0959
X2.4665Y-2.7333
X2.565Y-2.7333
X2.6634Y-2.7333
X2.7618Y-2.7333
T6
X1.7205Y-0.9646
X1.7205Y-1.2205
X3.1732Y-1.2382
X3.1732Y-1.4941
T7
X1.0539Y-1.2908
X1.0539Y-1.8908
X1.3531Y-1.3908
X1.3531Y-1.8908
T8
X1.1287Y-0.9486
X1.1315Y-2.993
X3.1732Y-2.9932
X3.1762Y-0.9484
T9
X1.1339Y-2.4055G85X1.1339Y-2.437
G05
X2.1367Y-0.9528G85X2.1682Y-0.9528
G05
X2.6299Y-2.9892G85X2.5984Y-2.9892
G05
X3.2009Y-2.0617G85X3.2009Y-2.0932
G05
M30
